<svg width="225" height="42" fill="none" xmlns="http://www.w3.org/2000/svg"><path d="M205.406 42c2.139 0 4.149-1.582 8.169-10.008 2.737-5.987 4.79-11.29 6.928-16.721.684-1.754 1.027-2.096 2.096-2.395.769-.214 1.069-.513 1.069-.984 0-.428-.257-.813-.898-.813-.941 0-2.053.129-3.336.129-1.326 0-2.309-.129-3.293-.129-.599 0-.898.343-.898.77 0 .47.299.77.983.984 1.882.513 2.053 1.326 1.326 3.55-1.155 3.507-2.438 6.885-4.405 11.376-1.668-4.149-3.079-7.87-4.49-12.06-.514-1.626-.342-2.31 1.668-2.866.769-.214 1.026-.47 1.026-.94 0-.471-.342-.814-.941-.814-1.283 0-2.609.129-4.362.129-1.882 0-3.25-.129-4.576-.129-.642 0-.941.385-.941.813 0 .513.256.77 1.026.984.984.256 1.283.598 1.882 2.138 2.352 5.86 4.448 11.034 7.185 18.048-1.839 3.378-3.208 4.148-5.047 4.49-1.496.257-2.48 1.198-2.48 2.395 0 .984.684 2.053 2.309 2.053Zm-13.343-29.21c2.737 0 3.978 2.48 3.978 3.464 0 .342-.171.6-.556.685-2.31.598-5.09 1.154-7.998 1.668.513-3.892 2.438-5.817 4.576-5.817Zm.3 19.245c3.72 0 6.286-1.839 7.826-3.678.684-.812.257-1.54-.428-1.54-.171 0-.342.086-.513.172-1.796 1.112-3.207 1.71-5.132 1.71-4.234 0-6.757-3.72-6.757-7.954v-.086c4.191-.598 8.297-1.411 12.531-2.395.556-.128.94-.556.812-1.197-.684-3.08-3.507-6.458-8.382-6.458-4.876 0-9.366 4.533-9.366 11.077 0 6.158 3.977 10.35 9.409 10.35Zm-19.972-.342c1.411 0 2.908-.128 4.618-.128 1.711 0 3.294.128 4.705.128.641 0 .941-.385.941-.813 0-.47-.3-.898-1.027-.983-1.924-.214-2.266-.428-2.266-1.326-.086-4.148-.086-8.04-.086-11.889 0-3.55 0-7.441.128-16.08 0-.556-.342-.685-.812-.556a42.982 42.982 0 0 1-6.116 1.069c-.727.043-1.026.385-1.026.812 0 .47.299.813 1.112.941 1.881.342 2.095.556 2.138 1.54.086 4.32.086 8.382.086 12.274 0 3.849 0 7.74-.086 11.89-.043.897-.299 1.068-2.224 1.325-.77.085-1.026.513-1.026.984 0 .427.299.812.941.812Zm-9.665-18.903c2.737 0 3.977 2.48 3.977 3.464 0 .342-.171.6-.556.685-2.31.598-5.089 1.154-7.997 1.668.513-3.892 2.437-5.817 4.576-5.817Zm.299 19.245c3.721 0 6.287-1.839 7.826-3.678.685-.812.257-1.54-.427-1.54-.171 0-.343.086-.514.172-1.796 1.112-3.207 1.71-5.132 1.71-4.234 0-6.757-3.72-6.757-7.954v-.086c4.191-.598 8.297-1.411 12.531-2.395.556-.128.941-.556.813-1.197-.685-3.08-3.507-6.458-8.383-6.458-4.875 0-9.366 4.533-9.366 11.077 0 6.158 3.978 10.35 9.409 10.35Zm-30.878-.342c1.412 0 2.823-.128 4.533-.128 1.711 0 3.165.128 4.577.128.641 0 .94-.385.94-.813 0-.47-.256-.812-1.026-.983-1.924-.3-2.138-.428-2.138-1.326-.043-1.368-.043-2.737-.043-4.063a63.008 63.008 0 0 0 2.78-1.881c1.796 2.694 3.635 5.474 5.431 8.04.556.812.856.983 1.754.983 1.283 0 2.865-.042 4.704 0 .641 0 .984-.384.984-.855 0-.428-.172-.813-1.07-.898-1.197-.128-1.839-.727-2.865-2.053-1.796-2.438-3.678-5.218-5.431-7.912 0-.042.042-.042.085-.085 3.293-2.866 5.474-5.047 7.1-7.185.213-.3.342-.556.342-.813 0-.513-.342-.855-1.027-.812-2.01.17-3.849.17-6.116.042-.898-.042-1.154.385-1.154.813 0 .385.299.813.898.941l.855.214c1.412.342 1.412 1.497-.342 3.336-1.882 2.01-4.319 3.934-6.971 5.602v-5.303c0-3.55 0-7.441.128-16.08 0-.556-.342-.685-.812-.556a42.982 42.982 0 0 1-6.116 1.069c-.727.043-1.026.385-1.026.812 0 .47.299.813 1.112.941 1.881.342 2.095.556 2.138 1.54.086 4.32.086 8.382.086 12.274 0 3.849 0 7.74-.086 11.89-.043.897-.214 1.026-2.138 1.325-.77.171-1.027.513-1.027.984 0 .427.3.812.941.812Zm-15.866 0c1.369 0 2.823-.128 4.49-.128 1.668 0 3.593.128 4.961.128.599 0 .899-.385.899-.813 0-.47-.257-.855-1.112-.983-2.181-.257-2.395-.47-2.438-1.369-.086-2.352-.086-4.447-.086-7.184V17.75c2.224-2.95 3.251-3.55 4.363-3.55 1.325 0 2.437 1.668 2.993 1.668.3 0 .471-.085.685-.513.427-.855.855-1.71 1.283-2.608.256-.556.128-.856-.385-1.198-1.027-.684-2.096-1.155-3.165-1.155-1.882 0-3.593 1.583-5.731 5.09 0-1.412.043-2.951.086-4.662 0-.556-.342-.684-.813-.556-2.224.599-4.319.94-6.116 1.07-.727.085-.983.384-.983.854 0 .471.256.813 1.069.941 1.882.342 2.096.556 2.138 1.497.086 2.139.086 4.405.086 6.715 0 2.737 0 4.832-.086 7.184-.042.899-.171 1.112-2.053 1.369-.769.171-1.026.513-1.026.984 0 .427.3.812.941.812ZM105.889 12.79c2.737 0 3.977 2.48 3.977 3.464 0 .342-.171.6-.556.685-2.309.598-5.089 1.154-7.997 1.668.513-3.892 2.438-5.817 4.576-5.817Zm.299 19.245c3.721 0 6.287-1.839 7.827-3.678.684-.812.256-1.54-.428-1.54-.171 0-.342.086-.513.172-1.796 1.112-3.208 1.71-5.132 1.71-4.234 0-6.757-3.72-6.757-7.954v-.086c4.191-.598 8.297-1.411 12.53-2.395.556-.128.941-.556.813-1.197-.684-3.08-3.507-6.458-8.382-6.458-4.876 0-9.366 4.533-9.366 11.077 0 6.158 3.977 10.35 9.408 10.35Zm-26.087-2.694c-1.283-.3-1.71-.727-1.753-2.267-.086-3.25-.086-5.773-.086-10.392v-.085c7.27-.172 11.077 1.453 11.077 6.757 0 3.122-2.224 6.244-6.715 6.244-1.154 0-1.881-.086-2.523-.257ZM78.348 5.52c0-.856.213-1.198.855-1.454.513-.171 1.283-.257 2.48-.257 3.55 0 5.731 1.925 5.731 5.688 0 2.096-.684 3.85-1.796 5.175-2.181-.385-4.662-.513-7.356-.385 0-3.379 0-5.816.086-8.767Zm4.96 26.43c7.1 0 11.334-4.149 11.334-8.981 0-3.806-2.31-6.244-6.116-7.57 2.138-1.283 3.978-3.635 3.978-6.458 0-4.576-3.807-7.399-10.479-7.399-2.865 0-3.55.257-6.244.257-2.78 0-4.49-.214-5.602-.214-.684 0-1.026.385-1.026.941 0 .47.256.856 1.154 1.027 2.31.342 2.866.812 2.866 1.967.043 3.635.085 6.372.085 11.162 0 4.79 0 7.613-.085 11.248-.043 1.24-.47 1.582-2.78 1.796-.898.128-1.155.556-1.155 1.026 0 .556.342.941 1.027.941 1.668 0 3.25-.085 5.516-.085 2.139 0 4.106.342 7.528.342Zm-34.768.256c3.635 0 7.014-1.026 10.221-3.122.898-.556 1.155-1.154 1.155-1.753 0-1.155.085-2.224.042-3.165-.042-.727-.384-1.154-.983-1.154-.47 0-.813.299-.984.94-1.112 3.721-4.448 5.731-8.681 5.731-6.245 0-10.949-5.175-10.949-13.001 0-7.912 4.448-13.087 11.034-13.087 4.277 0 6.843 1.583 8.254 4.919.3.684.556 1.026 1.112 1.026.599 0 .855-.428.898-1.112.043-.984.043-2.523.043-3.464 0-.642-.214-1.155-1.155-1.668-2.266-1.24-5.431-2.138-8.81-2.138-10.007 0-16.85 6.885-16.85 15.995 0 8.852 6.415 15.053 15.653 15.053Zm-32.502 0c7.398 0 12.274-4.576 12.274-12.659v-2.865c0-4.833 0-7.655.042-11.547.043-.898.47-1.283 2.823-1.497.813-.128 1.07-.556 1.07-1.026 0-.556-.343-.941-.985-.941-1.368 0-2.694.128-4.404.128-1.754 0-3.123-.128-4.534-.128-.641 0-.983.385-.983.94 0 .428.256.856 1.112.984 2.48.257 2.908.642 2.908 1.54.085 3.892.085 6.714.085 11.547v2.523c0 6.33-3.122 9.537-8.34 9.537-5.345 0-8.125-3.335-8.125-9.237v-2.823c0-4.833 0-7.655.086-11.547 0-.898.427-1.283 2.78-1.497.855-.128 1.111-.556 1.111-1.026 0-.556-.342-.941-1.026-.941-1.625 0-3.25.128-5.474.128S2.65 1.671.984 1.671c-.642 0-.984.385-.984.94 0 .471.257.899 1.112 1.027 2.352.214 2.78.599 2.78 1.497.085 3.892.085 6.714.085 11.547v3.379c0 7.997 4.62 12.145 12.06 12.145Z" fill="#ffffff"/></svg>