<?xml version="1.0" encoding="UTF-8" standalone="no"?>
<svg width="1187px" height="653px" viewBox="0 0 1187 653" version="1.1" xmlns="http://www.w3.org/2000/svg" xmlns:xlink="http://www.w3.org/1999/xlink" xmlns:sketch="http://www.bohemiancoding.com/sketch/ns">
    <!-- Generator: Sketch 3.2 (9964) - http://www.bohemiancoding.com/sketch -->
    <title>Logo (White)</title>
    <desc>Created with Sketch.</desc>
    <defs></defs>
    <g id="Page-1" stroke="none" stroke-width="1" fill="none" fill-rule="evenodd" sketch:type="MSPage">
        <g id="Logo-(White)" sketch:type="MSArtboardGroup" fill="#FFFFFF">
            <path d="M420.73643,649.58238 C414.16494,646.88 411.22234,645.08503 405.34616,640.1944 C392.72226,629.68777 380.23897,605.31281 375.54271,582 C372.69615,567.8693 375.98203,569.42237 347.34504,568.67233 C296.55074,567.34195 262.7365,561.12247 236.0971,548.21043 C215.26481,538.11308 196.89265,518.87579 184.56595,494.25273 C168.92204,463.00343 156.72757,412.32298 149.01446,346.5 C146.29157,323.26314 146.08425,322 144.99323,322 C144.48935,322 143.58337,323.9125 142.97994,326.25 C139.5276,339.62325 127.9116,365.27158 100.99221,418.95956 C69.76989,481.22932 58.673696,508.63703 55.540119,531.22669 C55.179498,533.82637 54.572945,536.1442 54.192222,536.37742 C53.316196,536.91404 1.0967961,531.43013 0.39441201,530.72775 C-0.64276185,529.69057 2.2477294,517.28281 5.6890297,508 C12.947359,488.42086 31.4992,452.69811 53.726907,415.5 C58.65669,407.25 71.824699,385.425 82.989151,367 C107.33184,326.8266 123.94519,298.06386 131.45031,283.09909 L136.98479,272.06365 L135.95139,261.78182 C132.13883,223.84865 125.13127,200.89392 114.29267,190.83413 C108.17019,185.1516 101.27743,181.55228 91.154114,178.75147 C84.636611,176.94828 80.678562,176.6268 64.5,176.58662 C52.188369,176.55602 43.438255,177.00528 39.643092,177.86281 C35.928078,178.70222 33.437415,178.83741 32.832491,178.23249 C31.580613,176.98061 35.776538,138.92632 37.344868,137.30818 C41.014414,133.52209 76.098258,129.76277 95.008967,131.12932 C109.00821,132.14095 117.40598,134.1487 127.39242,138.8716 C141.82498,145.6972 149.67059,154.87236 156.91215,173.39389 C164.9647,193.98967 169.38094,216.30481 175.53102,267.47451 C188.2152,373.00904 207.82417,438.86867 238.92859,480.40464 C250.7142,496.14281 259.87438,505.71749 271.95227,514.92264 C286.60304,526.08871 293.57399,530.26205 302,532.9115 C316.43044,537.44897 324.75988,538.2592 363.5,538.89386 L400.5,539.5 L401.15535,550.06782 C403.23062,583.5326 415.70965,613.84012 430.32699,620.91625 C434.58608,622.97804 435.5214,622.99977 519.06572,622.97804 C615.09221,622.95304 607.65752,623.62374 616.10886,614.22382 C626.84466,602.28303 634.58716,579.02348 637.00429,551.45108 C637.57798,544.90694 638.39852,539.20148 638.82772,538.77228 C639.25691,538.34309 694.03375,538.10625 760.55403,538.24597 L881.5,538.5 L881.5,553 L881.5,567.5 L773.50441,568 L665.50882,568.5 L664.6503,573 C656.88104,613.72301 639.69502,641.55124 617.29297,649.68275 L610.90902,652 L518.70451,651.9763 L426.5,651.9526 L420.73643,649.58245 L420.73643,649.58238 Z M955.44049,566.7055 C955.16476,565.98698 955.06536,559.3468 955.21959,551.94955 L955.5,538.5 L1036,538.5 L1116.5,538.5 L1116.5,553 L1116.5,567.5 L1036.2209,567.75596 C970.88979,567.96425 955.84846,567.76866 955.44049,566.7055 L955.44049,566.7055 Z M873.36755,191.88001 C843.86942,188.7815 807.7894,173.2033 738,133.43263 C649.36207,82.920796 617.07758,67.910584 574.5,57.415646 C551.0508,51.635658 540.55143,50.6082 505.5,50.663374 C454.88394,50.743054 420.10032,55.708448 384.95241,67.871668 C351.63911,79.400008 327.50754,93.275803 285.86216,124.84916 C238.12456,161.04132 211.98598,178.17015 212.00252,173.25 C212.01052,170.92677 217.45341,152.74941 220.52464,144.79008 C247.42403,75.0781 320.00192,26.450926 424.52819,8.1077304 C447.80834,4.0223252 464.5977,2.2287805 490.77361,1.0309799 C570.77625,-2.6299128 626.19391,12.989064 703.5,60.986026 C711.2,65.766718 732.575,79.572469 751,91.665472 C800.07293,123.87384 824.88967,138.30168 851.21693,149.92912 C875.26875,160.55162 898.69378,167.8482 923.5,172.44434 C931.71469,173.96637 935.5,175.08789 935.5,175.99975 C935.5,178.13622 923.52152,184.8634 914.09203,188.02257 C905.96064,190.74683 891.30671,193.14179 884.5,192.85892 C882.85,192.79032 877.8404,192.34984 873.36755,191.88001 L873.36755,191.88001 Z" id="Border" sketch:type="MSShapeGroup"></path>
            <path d="M897.55081,573.08221 C897.22571,572.55619 897.42223,565.91 897.98753,558.3129 C900.54474,523.94624 901.15153,505.41031 901.68054,445.5 C902.22808,383.49148 901.45088,346.31657 898.9209,313.5 C897.55543,295.78841 894.34526,267.49886 892.41201,256.14051 C891.27024,249.43226 891.12525,246.47475 891.90018,245.69982 C892.96396,244.63604 930.92215,238.85207 932.10818,239.57304 C932.44268,239.77637 933.25042,243.44312 933.90315,247.72137 C935.683,259.38713 936.07204,261 937.10612,261 C937.62708,261 941.02258,258.55083 944.65166,255.55739 C959.90014,242.97973 977.79965,237.26856 1005,236.30213 C1022.1242,235.69371 1032.4318,237.04147 1045.4564,241.59197 C1070.2596,250.2577 1091.7693,274.30416 1101.9803,304.78187 C1106.3508,317.82685 1108.0991,329.52072 1108.1428,346 C1108.2158,373.64128 1103.1197,395.15083 1091.3268,416.97379 C1076.0904,445.16927 1055.2503,462.60227 1028.3709,469.63734 C1020.4172,471.71903 1015.3294,472.32211 1002.1759,472.74231 C976.63261,473.55831 958.11892,470.1001 947.45985,462.52177 C944.73545,460.5848 941.88552,459 941.12667,459 C939.96763,459 939.84642,464.79831 940.36892,495.25 C940.711,515.1875 941.10544,540.95 941.24545,552.5 L941.5,573.5 L919.82095,573.7693 C906.79613,573.9311 897.90593,573.65682 897.55081,573.08221 L897.55081,573.08221 Z M1010.8472,441.61837 C1018.6369,439.44977 1029.7496,433.89711 1035.5842,429.25803 C1042.3162,423.90546 1049.0251,414.81678 1054.5028,403.62872 C1074.5844,362.61247 1067.4912,309.09735 1038.5547,283.30664 C1027.4107,273.37419 1013.9402,268.83135 995.77906,268.88082 C972.36946,268.94462 956.90758,274.28678 943.95232,286.78732 L936.99546,293.5 L937.9645,313 C938.49747,323.725 939.43163,353.65 940.04043,379.5 C940.64922,405.35 941.31812,427.04442 941.52686,427.70982 C942.84159,431.90072 960.1395,440.10096 972.66914,442.47313 C982.19921,444.27741 1002.9658,443.81247 1010.8472,441.61837 L1010.8472,441.61837 Z M331,473.97464 C310.24334,472.62673 278.64667,467.04667 275.83179,464.23179 C275.30087,463.70087 276.51557,456.2118 278.80239,445.9168 L282.67118,428.5 L285.58559,428.5847 C287.18852,428.6313 292.55,429.88791 297.5,431.37718 C327.61809,440.43858 360.13822,442.97875 388.5,438.48526 C418.92875,433.6643 435.12204,420.64787 436.70341,399.7386 C438.20436,379.8926 427.76367,363.7592 404.55881,350.06736 C398.56272,346.52942 381.72657,338.08733 367.14514,331.30716 C337.96833,317.74035 329.6755,313.41951 317,305.17987 C307.00823,298.68478 293.87424,285.75844 289.17921,277.79895 C281.82166,265.32566 278.37624,249.82173 279.3347,233.5 C281.55534,195.68427 305.69868,170.00891 348,160.47752 C358.16947,158.18613 400.9122,157.30342 421.28217,158.96412 C436.56414,160.21002 453.57213,163.17213 455.28626,164.88626 C455.9256,165.5256 455.35146,171.77707 453.63288,182.8874 C452.1848,192.2493 451,200.3795 451,200.95452 C451,202.4264 447.34842,202.23609 441.5,200.45941 C416.09794,192.74258 371.53395,189.52781 350.5,193.89483 C333.74768,197.37291 324.29233,203.59818 318.792,214.77095 C315.76653,220.91655 315.5,222.23049 315.5,231 C315.5,239.75145 315.77023,241.09097 318.76152,247.16715 C325.50099,260.85696 337.86463,268.96298 381,287.97283 C433.78068,311.23338 457.58655,329.94955 468.47467,356.74539 C475.442,373.89208 475.88837,399.5641 469.54763,418.45286 C461.10065,443.61596 440.41847,460.45337 407.5,468.96598 C389.58366,473.59908 357.53199,475.69759 331,473.97464 L331,473.97464 Z M743.5,471.57543 C728.87768,468.672 718.22614,463.18707 708.3982,453.5 C696.85563,442.12288 692.50033,430.52047 692.63227,411.5 C692.75559,393.72386 697.37206,380.09222 707.4647,367.70245 C726.14332,344.77248 758.68595,333.82547 816.0507,331.17523 C825.70358,330.72926 834.14108,330.03084 834.8007,329.62318 C836.56215,328.53454 836.31661,308.96878 834.44166,301.01353 C829.99081,282.12895 817.42838,273.9035 788.60265,270.99971 C770.31909,269.15791 734.26317,272.19109 711.96398,277.44691 C702.09293,279.77347 702.62138,280.18884 703.44377,270.75 C703.83912,266.2125 704.68851,258.9 705.33129,254.5 L706.5,246.5 L713.5,244.73276 C723.94423,242.09597 741.10108,239.19299 753.5,237.96466 C771.39367,236.19197 802.95816,236.41872 813.5,238.39567 C840.55105,243.46867 857.80684,254.17506 866.30932,271.16131 C874.25885,287.04288 875.642,299.7306 874.11171,342.73334 C872.13911,398.1656 872.81797,424.07395 876.98786,452.5 C878.03671,459.65 878.55044,465.84558 878.12947,466.26796 C877.70851,466.69034 869.42275,467.32314 859.71669,467.67419 L842.0693,468.31246 L841.01117,465.52938 C840.4292,463.99869 839.67131,459.41335 839.32696,455.33974 C838.98262,451.26612 838.35062,447.71669 837.92252,447.45211 C837.49442,447.18753 834.16775,449.22389 830.52992,451.97736 C823.78612,457.08172 811.25445,463.59476 802.80209,466.38825 C786.6621,471.72248 757.21338,474.29838 743.5,471.57543 L743.5,471.57543 Z M804.5,436.5818 C815.08162,433.89864 828.45398,427.7519 833.5697,423.21961 L836.6394,420.5 L836.0697,389.5 L835.5,358.5 L818.89722,358.646 C764.85739,359.12121 736.44568,373.19813 732.10419,401.64863 C730.35355,413.12081 732.45908,421.28812 738.99528,428.37906 C743.4133,433.17204 749.86274,436.39787 759.40476,438.58732 C769.01769,440.79303 791.90655,439.7751 804.5,436.5818 L804.5,436.5818 Z M487.56642,466.10747 C487.24939,465.5945 487.65282,450.62297 488.46288,432.8374 C492.44635,345.37972 491.40021,310.34112 483.3666,262.14636 C481.52377,251.09099 481.11161,246.48839 481.89433,245.70567 C483.18271,244.41729 521.20673,238.87365 522.14611,239.83724 C522.50148,240.20176 523.5384,245.225 524.45039,251 C526.81304,265.96105 527.05042,267 528.10612,267 C528.62708,267 531.92181,264.6375 535.42773,261.75 C547.6551,251.67946 564.06448,243.11106 578.07695,239.48006 C593.285,235.53926 617.91181,235.75881 634.5,239.98307 C653.72802,244.87958 668.78241,255.6669 675.50881,269.36821 C677.43449,273.29069 680.02028,280.325 681.25502,285 C683.49885,293.49564 683.5,293.54442 683.5,380 L683.5,466.5 L663.07127,466.77127 C651.83548,466.92048 642.28641,466.68637 641.85113,466.25113 C641.41584,465.81584 641.69804,456.68955 642.47823,445.97048 C646.33549,392.9753 646.93648,319.23817 643.6171,306.23973 C640.3654,293.50636 632.35008,282.33511 622.99437,277.49709 C608.38823,269.94396 587.4565,268.43083 567.5,273.48547 C559.05432,275.62462 542.60273,283.9758 535.5,289.72936 L529.5,294.58966 L529.5,380.54483 L529.5,466.5 L508.82142,466.77007 C496.79104,466.92719 487.90177,466.65008 487.56642,466.10747 L487.56642,466.10747 Z M1114.4914,465.13502 C1105.2637,460.94297 1101.334,452.06592 1102.1865,437.339 C1103.3133,417.87531 1117.4218,403.43467 1136.4947,402.22329 C1146.1123,401.61244 1151.5284,403.26525 1156.6316,408.36842 C1161.9458,413.68264 1163.3371,418.68335 1162.8174,430.60174 C1162.4798,438.3448 1161.9438,440.67194 1159.2266,446.1912 C1155.0808,454.61255 1147.3768,461.96703 1139.6872,464.84407 C1132.2137,467.64029 1120.3087,467.77776 1114.4914,465.13502 L1114.4914,465.13502 Z M1135.7127,340.29209 C1134.5752,338.32178 1133.9479,230.76361 1134.9937,217 C1137.1598,188.49198 1141.7354,173.25493 1150.9558,163.84514 C1158.9241,155.71316 1167.3061,153.84278 1176.03,158.25 C1183.9037,162.22765 1187,169.76592 1187,184.95748 C1187,211.99256 1173.4261,271.2436 1153.3138,332 L1150.5,340.5 L1143.335,340.79209 C1139.3943,340.95274 1135.9643,340.72779 1135.7127,340.29209 L1135.7127,340.29209 Z" id="Snap!" sketch:type="MSShapeGroup"></path>
        </g>
    </g>
</svg>